<svg width="164" height="78" viewBox="0 0 164 78" fill="none" xmlns="http://www.w3.org/2000/svg">
<path d="M23.4838 53.6943V67.8143H13.7838V53.6943H16.4638V58.4543H20.8038V53.6943H23.4838ZM25.7638 71.0943V53.1743H28.4438V59.3543H30.9838V61.6743H28.4438V71.0943H25.7638ZM20.8038 65.5343V60.6943H16.4638V65.5343H20.8038ZM33.0205 61.8543V56.5743H44.1205V55.5343H33.0205V53.3743H46.8005V58.6143H35.7005V59.6743H47.1005V61.8543H33.0205ZM31.1205 65.1343V62.9743H48.7205V65.1343H31.1205ZM35.8005 65.8943V68.6143H47.5005V70.8943H33.1205V65.8943H35.8005ZM60.2772 68.1343C59.0239 67.201 57.8905 66.1077 56.8772 64.8543C56.3305 64.1743 55.8372 63.4743 55.3972 62.7543C54.2639 64.9543 52.6305 66.8877 50.4972 68.5543L48.6972 66.6943C49.7639 65.9077 50.6772 65.041 51.4372 64.0943C52.1972 63.1477 52.8172 62.1277 53.2972 61.0343C53.7772 59.941 54.1239 58.781 54.3372 57.5543C54.5639 56.3277 54.6772 55.041 54.6772 53.6943H57.3972C57.3972 55.961 57.0905 58.081 56.4772 60.0543C57.0372 61.1743 57.6905 62.1877 58.4372 63.0943C59.3839 64.241 60.5505 65.281 61.9372 66.2143L60.2772 68.1343ZM63.4372 71.0943V53.1743H66.1172V71.0943H63.4372ZM76.2739 63.4143C77.1539 63.4143 77.9539 63.521 78.6739 63.7343C79.4072 63.9343 80.0406 64.221 80.5739 64.5943C81.1072 64.9677 81.5206 65.421 81.8139 65.9543C82.1072 66.4743 82.2539 67.061 82.2539 67.7143C82.2539 68.3677 82.1072 68.961 81.8139 69.4943C81.5206 70.0143 81.1072 70.461 80.5739 70.8343C80.0406 71.2077 79.4072 71.4943 78.6739 71.6943C77.9539 71.9077 77.1539 72.0143 76.2739 72.0143C75.3939 72.0143 74.5872 71.9077 73.8539 71.6943C73.1339 71.4943 72.5072 71.2077 71.9739 70.8343C71.4406 70.461 71.0272 70.0143 70.7339 69.4943C70.4406 68.961 70.2939 68.3677 70.2939 67.7143C70.2939 67.061 70.4406 66.4743 70.7339 65.9543C71.0272 65.421 71.4406 64.9677 71.9739 64.5943C72.5072 64.221 73.1339 63.9343 73.8539 63.7343C74.5872 63.521 75.3939 63.4143 76.2739 63.4143ZM67.3939 62.6743V60.4743H74.0139V57.1743H76.7339V60.4743H84.9939V62.6743H67.3939ZM80.0739 59.5343C80.1672 59.1877 80.2472 58.821 80.3139 58.4343C80.3806 58.0343 80.4339 57.6543 80.4739 57.2943C80.5139 56.921 80.5406 56.5877 80.5539 56.2943C80.5806 56.001 80.5939 55.7743 80.5939 55.6143H69.0139V53.4543H83.3539C83.3539 54.0543 83.3406 54.641 83.3139 55.2143C83.2872 55.7877 83.2472 56.341 83.1939 56.8743C83.1406 57.3943 83.0739 57.881 82.9939 58.3343C82.9139 58.7877 82.8206 59.1877 82.7139 59.5343H80.0739ZM76.2739 69.8143C77.3539 69.8143 78.1739 69.6277 78.7339 69.2543C79.2939 68.8677 79.5739 68.3543 79.5739 67.7143C79.5739 67.0743 79.2939 66.5677 78.7339 66.1943C78.1739 65.8077 77.3539 65.6143 76.2739 65.6143C75.1939 65.6143 74.3739 65.8077 73.8139 66.1943C73.2539 66.5677 72.9739 67.0743 72.9739 67.7143C72.9739 68.3543 73.2539 68.8677 73.8139 69.2543C74.3739 69.6277 75.1939 69.8143 76.2739 69.8143ZM101.843 53.6943V67.8143H92.1431V53.6943H94.8231V58.4543H99.1631V53.6943H101.843ZM104.123 71.0943V53.1743H106.803V59.3543H109.343V61.6743H106.803V71.0943H104.123ZM99.1631 65.5343V60.6943H94.8231V65.5343H99.1631ZM111.38 61.8543V56.5743H122.48V55.5343H111.38V53.3743H125.16V58.6143H114.06V59.6743H125.46V61.8543H111.38ZM109.48 65.1343V62.9743H127.08V65.1343H109.48ZM114.16 65.8943V68.6143H125.86V70.8943H111.48V65.8943H114.16ZM138.317 68.1343C137.063 67.201 135.93 66.1077 134.917 64.8543C134.37 64.1743 133.877 63.4743 133.437 62.7543C132.303 64.9543 130.67 66.8877 128.537 68.5543L126.737 66.6943C127.803 65.9077 128.717 65.041 129.477 64.0943C130.237 63.1477 130.857 62.1277 131.337 61.0343C131.817 59.941 132.163 58.781 132.377 57.5543C132.603 56.3277 132.717 55.041 132.717 53.6943H135.437C135.437 55.961 135.13 58.081 134.517 60.0543C135.077 61.1743 135.73 62.1877 136.477 63.0943C137.423 64.241 138.59 65.281 139.977 66.2143L138.317 68.1343ZM140.597 71.0943V53.1743H143.277V56.7343H145.817V59.0143H143.277V62.7343H145.817V65.0143H143.277V71.0943H140.597ZM156.773 68.1343C155.52 67.201 154.387 66.1077 153.373 64.8543C152.827 64.1743 152.333 63.4743 151.893 62.7543C150.76 64.9543 149.127 66.8877 146.993 68.5543L145.193 66.6943C146.26 65.9077 147.173 65.041 147.933 64.0943C148.693 63.1477 149.313 62.1277 149.793 61.0343C150.273 59.941 150.62 58.781 150.833 57.5543C151.06 56.3277 151.173 55.041 151.173 53.6943H153.893C153.893 55.961 153.587 58.081 152.973 60.0543C153.533 61.1743 154.187 62.1877 154.933 63.0943C155.88 64.241 157.047 65.281 158.433 66.2143L156.773 68.1343ZM159.933 71.0943V53.1743H162.613V71.0943H159.933Z" fill="white" fill-opacity="0.3"/>
<mask id="mask0_1037_498" style="mask-type:luminance" maskUnits="userSpaceOnUse" x="7" y="0" width="21" height="27">
<path fill-rule="evenodd" clip-rule="evenodd" d="M11.2506 0.0012207L11.2506 23.3383H23.6779L23.678 0.0012207H27.2255V26.8211H7.70312V0.0012207H11.2506Z" fill="white"/>
</mask>
<g mask="url(#mask0_1037_498)">
<path fill-rule="evenodd" clip-rule="evenodd" d="M6.96875 27.5376H27.9509V-0.715393H6.96875V27.5376Z" fill="white" fill-opacity="0.3"/>
</g>
<mask id="mask1_1037_498" style="mask-type:luminance" maskUnits="userSpaceOnUse" x="15" y="0" width="5" height="19">
<path fill-rule="evenodd" clip-rule="evenodd" d="M15.6914 0.0012207H19.2389V18.8864H15.6914V0.0012207Z" fill="white"/>
</mask>
<g mask="url(#mask1_1037_498)">
<path fill-rule="evenodd" clip-rule="evenodd" d="M14.9648 19.6027H19.9722V-0.715637H14.9648V19.6027Z" fill="white" fill-opacity="0.3"/>
</g>
<mask id="mask2_1037_498" style="mask-type:luminance" maskUnits="userSpaceOnUse" x="62" y="7" width="28" height="5">
<path fill-rule="evenodd" clip-rule="evenodd" d="M62.5391 7.74078H89.3336V11.2234H62.5391V7.74078Z" fill="white"/>
</mask>
<g mask="url(#mask2_1037_498)">
<path fill-rule="evenodd" clip-rule="evenodd" d="M61.8125 11.9403H90.0669V7.02454H61.8125V11.9403Z" fill="white" fill-opacity="0.3"/>
</g>
<mask id="mask3_1037_498" style="mask-type:luminance" maskUnits="userSpaceOnUse" x="70" y="23" width="27" height="4">
<path fill-rule="evenodd" clip-rule="evenodd" d="M70.8047 23.05H96.8783V26.5326H70.8047V23.05Z" fill="white"/>
</mask>
<g mask="url(#mask3_1037_498)">
<path fill-rule="evenodd" clip-rule="evenodd" d="M70.0703 27.2492H97.6038V22.3334H70.0703V27.2492Z" fill="white" fill-opacity="0.3"/>
</g>
<mask id="mask4_1037_498" style="mask-type:luminance" maskUnits="userSpaceOnUse" x="0" y="0" width="35" height="35">
<path fill-rule="evenodd" clip-rule="evenodd" d="M3.5475 0.00177002V30.8069H31.379L31.3791 0.00177002H34.9266V34.2895H0V0.00177002H3.5475Z" fill="white"/>
</mask>
<g mask="url(#mask4_1037_498)">
<path fill-rule="evenodd" clip-rule="evenodd" d="M-0.726562 35.0055H35.6599V-0.715454H-0.726562V35.0055Z" fill="white" fill-opacity="0.3"/>
</g>
<mask id="mask5_1037_498" style="mask-type:luminance" maskUnits="userSpaceOnUse" x="62" y="0" width="36" height="35">
<path fill-rule="evenodd" clip-rule="evenodd" d="M97.45 0.0012207V18.8864L66.0709 18.8863V30.8063L97.45 30.8064V34.289H62.5234V15.4038L93.9024 15.4037V3.48387H62.5234V0.0012207H97.45Z" fill="white"/>
</mask>
<g mask="url(#mask5_1037_498)">
<path fill-rule="evenodd" clip-rule="evenodd" d="M61.7969 35.0057H98.1833V-0.71521H61.7969V35.0057Z" fill="white" fill-opacity="0.3"/>
</g>
<mask id="mask6_1037_498" style="mask-type:luminance" maskUnits="userSpaceOnUse" x="123" y="0" width="41" height="35">
<path fill-rule="evenodd" clip-rule="evenodd" d="M143.776 0L164 34.2492H159.94L143.776 6.54223L127.612 34.2492H123.617L143.776 0Z" fill="white"/>
</mask>
<g mask="url(#mask6_1037_498)">
<path fill-rule="evenodd" clip-rule="evenodd" d="M122.891 34.9659H164.733V-0.716431H122.891V34.9659Z" fill="white" fill-opacity="0.3"/>
</g>
<mask id="mask7_1037_498" style="mask-type:luminance" maskUnits="userSpaceOnUse" x="132" y="14" width="24" height="21">
<path fill-rule="evenodd" clip-rule="evenodd" d="M143.775 14.4669L155.556 34.2491H151.499L143.775 21.009L136.05 34.2491H132.16L143.775 14.4669Z" fill="white"/>
</mask>
<g mask="url(#mask7_1037_498)">
<path fill-rule="evenodd" clip-rule="evenodd" d="M131.43 34.9656H156.285V13.7502H131.43V34.9656Z" fill="white" fill-opacity="0.3"/>
</g>
<mask id="mask8_1037_498" style="mask-type:luminance" maskUnits="userSpaceOnUse" x="140" y="28" width="8" height="7">
<path fill-rule="evenodd" clip-rule="evenodd" d="M143.774 28.5593L147.163 34.2491H140.434L143.774 28.5593Z" fill="white"/>
</mask>
<g mask="url(#mask8_1037_498)">
<path fill-rule="evenodd" clip-rule="evenodd" d="M139.703 34.9657H147.892V27.8427H139.703V34.9657Z" fill="white" fill-opacity="0.3"/>
</g>
</svg>
