<svg width="166" height="78" viewBox="0 0 166 78" fill="none" xmlns="http://www.w3.org/2000/svg">
<path d="M11.14 53.6947V67.8147H1.44V53.6947H4.12V58.4547H8.46V53.6947H11.14ZM13.42 71.0947V53.1747H16.1V59.3547H18.64V61.6747H16.1V71.0947H13.42ZM8.46 65.5347V60.6947H4.12V65.5347H8.46ZM20.6767 61.8547V56.5747H31.7767V55.5347H20.6767V53.3747H34.4567V58.6147H23.3567V59.6747H34.7567V61.8547H20.6767ZM18.7767 65.1347V62.9747H36.3767V65.1347H18.7767ZM23.4567 65.8947V68.6147H35.1567V70.8947H20.7767V65.8947H23.4567ZM47.9334 68.1347C46.6801 67.2014 45.5468 66.108 44.5334 64.8547C43.9868 64.1747 43.4934 63.4747 43.0534 62.7547C41.9201 64.9547 40.2868 66.888 38.1534 68.5547L36.3534 66.6947C37.4201 65.908 38.3334 65.0414 39.0934 64.0947C39.8534 63.148 40.4734 62.128 40.9534 61.0347C41.4334 59.9414 41.7801 58.7814 41.9934 57.5547C42.2201 56.328 42.3334 55.0414 42.3334 53.6947H45.0534C45.0534 55.9614 44.7468 58.0814 44.1334 60.0547C44.6934 61.1747 45.3468 62.188 46.0934 63.0947C47.0401 64.2414 48.2068 65.2814 49.5934 66.2147L47.9334 68.1347ZM51.0934 71.0947V53.1747H53.7734V71.0947H51.0934ZM63.9302 63.4147C64.8102 63.4147 65.6102 63.5214 66.3302 63.7347C67.0635 63.9347 67.6968 64.2214 68.2302 64.5947C68.7635 64.968 69.1768 65.4214 69.4702 65.9547C69.7635 66.4747 69.9102 67.0614 69.9102 67.7147C69.9102 68.368 69.7635 68.9614 69.4702 69.4947C69.1768 70.0147 68.7635 70.4614 68.2302 70.8347C67.6968 71.208 67.0635 71.4947 66.3302 71.6947C65.6102 71.908 64.8102 72.0147 63.9302 72.0147C63.0502 72.0147 62.2435 71.908 61.5102 71.6947C60.7902 71.4947 60.1635 71.208 59.6302 70.8347C59.0968 70.4614 58.6835 70.0147 58.3902 69.4947C58.0968 68.9614 57.9502 68.368 57.9502 67.7147C57.9502 67.0614 58.0968 66.4747 58.3902 65.9547C58.6835 65.4214 59.0968 64.968 59.6302 64.5947C60.1635 64.2214 60.7902 63.9347 61.5102 63.7347C62.2435 63.5214 63.0502 63.4147 63.9302 63.4147ZM55.0502 62.6747V60.4747H61.6702V57.1747H64.3902V60.4747H72.6502V62.6747H55.0502ZM67.7302 59.5347C67.8235 59.188 67.9035 58.8214 67.9702 58.4347C68.0368 58.0347 68.0902 57.6547 68.1302 57.2947C68.1702 56.9214 68.1968 56.588 68.2102 56.2947C68.2368 56.0014 68.2502 55.7747 68.2502 55.6147H56.6702V53.4547H71.0102C71.0102 54.0547 70.9968 54.6414 70.9702 55.2147C70.9435 55.788 70.9035 56.3414 70.8502 56.8747C70.7968 57.3947 70.7302 57.8814 70.6502 58.3347C70.5702 58.788 70.4768 59.188 70.3702 59.5347H67.7302ZM63.9302 69.8147C65.0102 69.8147 65.8302 69.628 66.3902 69.2547C66.9502 68.868 67.2302 68.3547 67.2302 67.7147C67.2302 67.0747 66.9502 66.568 66.3902 66.1947C65.8302 65.808 65.0102 65.6147 63.9302 65.6147C62.8502 65.6147 62.0302 65.808 61.4702 66.1947C60.9102 66.568 60.6302 67.0747 60.6302 67.7147C60.6302 68.3547 60.9102 68.868 61.4702 69.2547C62.0302 69.628 62.8502 69.8147 63.9302 69.8147ZM89.4994 53.6947V67.8147H79.7994V53.6947H82.4794V58.4547H86.8194V53.6947H89.4994ZM91.7794 71.0947V53.1747H94.4594V59.3547H96.9994V61.6747H94.4594V71.0947H91.7794ZM86.8194 65.5347V60.6947H82.4794V65.5347H86.8194ZM99.0361 61.8547V56.5747H110.136V55.5347H99.0361V53.3747H112.816V58.6147H101.716V59.6747H113.116V61.8547H99.0361ZM97.1361 65.1347V62.9747H114.736V65.1347H97.1361ZM101.816 65.8947V68.6147H113.516V70.8947H99.1361V65.8947H101.816ZM125.973 68.1347C124.719 67.2014 123.586 66.108 122.573 64.8547C122.026 64.1747 121.533 63.4747 121.093 62.7547C119.959 64.9547 118.326 66.888 116.193 68.5547L114.393 66.6947C115.459 65.908 116.373 65.0414 117.133 64.0947C117.893 63.148 118.513 62.128 118.993 61.0347C119.473 59.9414 119.819 58.7814 120.033 57.5547C120.259 56.328 120.373 55.0414 120.373 53.6947H123.093C123.093 55.9614 122.786 58.0814 122.173 60.0547C122.733 61.1747 123.386 62.188 124.133 63.0947C125.079 64.2414 126.246 65.2814 127.633 66.2147L125.973 68.1347ZM128.253 71.0947V53.1747H130.933V56.7347H133.473V59.0147H130.933V62.7347H133.473V65.0147H130.933V71.0947H128.253ZM144.43 68.1347C143.176 67.2014 142.043 66.108 141.03 64.8547C140.483 64.1747 139.99 63.4747 139.55 62.7547C138.416 64.9547 136.783 66.888 134.65 68.5547L132.85 66.6947C133.916 65.908 134.83 65.0414 135.59 64.0947C136.35 63.148 136.97 62.128 137.45 61.0347C137.93 59.9414 138.276 58.7814 138.49 57.5547C138.716 56.328 138.83 55.0414 138.83 53.6947H141.55C141.55 55.9614 141.243 58.0814 140.63 60.0547C141.19 61.1747 141.843 62.188 142.59 63.0947C143.536 64.2414 144.703 65.2814 146.09 66.2147L144.43 68.1347ZM147.59 71.0947V53.1747H150.27V71.0947H147.59Z" fill="white"/>
<mask id="mask0_1051_989" style="mask-type:luminance" maskUnits="userSpaceOnUse" x="9" y="0" width="21" height="27">
<path fill-rule="evenodd" clip-rule="evenodd" d="M13.2506 0.000976562L13.2506 23.3381H25.6779L25.678 0.000976562H29.2255V26.8209H9.70312V0.000976562H13.2506Z" fill="white"/>
</mask>
<g mask="url(#mask0_1051_989)">
<path fill-rule="evenodd" clip-rule="evenodd" d="M8.96875 27.5372H29.9509V-0.71582H8.96875V27.5372Z" fill="white"/>
</g>
<mask id="mask1_1051_989" style="mask-type:luminance" maskUnits="userSpaceOnUse" x="17" y="0" width="5" height="19">
<path fill-rule="evenodd" clip-rule="evenodd" d="M17.6914 0.000976562H21.2389V18.8862H17.6914V0.000976562Z" fill="white"/>
</mask>
<g mask="url(#mask1_1051_989)">
<path fill-rule="evenodd" clip-rule="evenodd" d="M16.9648 19.6025H21.9722V-0.71582H16.9648V19.6025Z" fill="white"/>
</g>
<mask id="mask2_1051_989" style="mask-type:luminance" maskUnits="userSpaceOnUse" x="64" y="7" width="28" height="5">
<path fill-rule="evenodd" clip-rule="evenodd" d="M64.5391 7.74121H91.3336V11.2238H64.5391V7.74121Z" fill="white"/>
</mask>
<g mask="url(#mask2_1051_989)">
<path fill-rule="evenodd" clip-rule="evenodd" d="M63.8125 11.9412H92.0669V7.02539H63.8125V11.9412Z" fill="white"/>
</g>
<mask id="mask3_1051_989" style="mask-type:luminance" maskUnits="userSpaceOnUse" x="72" y="23" width="27" height="4">
<path fill-rule="evenodd" clip-rule="evenodd" d="M72.8047 23.0498H98.8783V26.5324H72.8047V23.0498Z" fill="white"/>
</mask>
<g mask="url(#mask3_1051_989)">
<path fill-rule="evenodd" clip-rule="evenodd" d="M72.0703 27.2488H99.6038V22.333H72.0703V27.2488Z" fill="white"/>
</g>
<mask id="mask4_1051_989" style="mask-type:luminance" maskUnits="userSpaceOnUse" x="2" y="0" width="35" height="35">
<path fill-rule="evenodd" clip-rule="evenodd" d="M5.5475 0.00195312V30.8071H33.379L33.3791 0.00195312H36.9266V34.2897H2V0.00195312H5.5475Z" fill="white"/>
</mask>
<g mask="url(#mask4_1051_989)">
<path fill-rule="evenodd" clip-rule="evenodd" d="M1.27344 35.0061H37.6599V-0.714844H1.27344V35.0061Z" fill="white"/>
</g>
<mask id="mask5_1051_989" style="mask-type:luminance" maskUnits="userSpaceOnUse" x="64" y="0" width="36" height="35">
<path fill-rule="evenodd" clip-rule="evenodd" d="M99.45 0.000976562V18.8862L68.0709 18.8861V30.8061L99.45 30.8062V34.2887H64.5234V15.4035L95.9024 15.4035V3.48363H64.5234V0.000976562H99.45Z" fill="white"/>
</mask>
<g mask="url(#mask5_1051_989)">
<path fill-rule="evenodd" clip-rule="evenodd" d="M63.7969 35.0051H100.183V-0.71582H63.7969V35.0051Z" fill="white"/>
</g>
<mask id="mask6_1051_989" style="mask-type:luminance" maskUnits="userSpaceOnUse" x="125" y="0" width="41" height="35">
<path fill-rule="evenodd" clip-rule="evenodd" d="M145.776 0L166 34.2492H161.94L145.776 6.54223L129.612 34.2492H125.617L145.776 0Z" fill="white"/>
</mask>
<g mask="url(#mask6_1051_989)">
<path fill-rule="evenodd" clip-rule="evenodd" d="M124.891 34.9656H166.733V-0.716797H124.891V34.9656Z" fill="white"/>
</g>
<mask id="mask7_1051_989" style="mask-type:luminance" maskUnits="userSpaceOnUse" x="134" y="14" width="24" height="21">
<path fill-rule="evenodd" clip-rule="evenodd" d="M145.775 14.4668L157.556 34.2491H153.499L145.775 21.009L138.05 34.2491H134.16L145.775 14.4668Z" fill="white"/>
</mask>
<g mask="url(#mask7_1051_989)">
<path fill-rule="evenodd" clip-rule="evenodd" d="M133.43 34.9655H158.285V13.75H133.43V34.9655Z" fill="white"/>
</g>
<mask id="mask8_1051_989" style="mask-type:luminance" maskUnits="userSpaceOnUse" x="142" y="28" width="8" height="7">
<path fill-rule="evenodd" clip-rule="evenodd" d="M145.774 28.5596L149.163 34.2494H142.434L145.774 28.5596Z" fill="white"/>
</mask>
<g mask="url(#mask8_1051_989)">
<path fill-rule="evenodd" clip-rule="evenodd" d="M141.703 34.9658H149.892V27.8428H141.703V34.9658Z" fill="white"/>
</g>
</svg>
