<svg width="39" height="36" viewBox="0 0 39 36" fill="none" xmlns="http://www.w3.org/2000/svg">
<circle cx="18" cy="18" r="18" fill="#ADADAD"/>
<path d="M18.5002 10C13.2533 10 9 13.2515 9 17.2625C9 19.8557 10.7776 22.131 13.453 23.4158C13.3074 23.9024 12.5179 26.5461 12.4864 26.7538C12.4864 26.7538 12.4675 26.9095 12.5718 26.9694C12.676 27.0294 12.7986 26.9827 12.7986 26.9827C13.0975 26.9422 16.2646 24.7853 16.8125 24.4107C17.3715 24.4871 17.9353 24.5253 18.4999 24.525C23.7467 24.525 28 21.2735 28 17.2625C28 13.2515 23.747 10 18.5002 10Z" fill="white"/>
<path d="M15.323 21.154C16.379 21.154 17.248 20.736 17.919 19.955L17.061 18.943C16.621 19.416 16.071 19.746 15.378 19.746C14.091 19.746 13.255 18.679 13.255 16.908C13.255 15.159 14.179 14.103 15.411 14.103C16.027 14.103 16.5 14.389 16.907 14.785L17.765 13.751C17.237 13.201 16.412 12.706 15.378 12.706C13.321 12.706 11.594 14.279 11.594 16.963C11.594 19.68 13.266 21.154 15.323 21.154ZM18.4805 21H20.1085V17.48H23.1885V21H24.8055V12.86H23.1885V16.061H20.1085V12.86H18.4805V21Z" fill="#ADADAD"/>
</svg>
