<svg width="36" height="36" viewBox="0 0 36 36" fill="none" xmlns="http://www.w3.org/2000/svg">
<circle cx="18" cy="18" r="18" fill="#ADADAD"/>
<path d="M29.7692 21.4317C29.5744 23.2447 28.2888 24.4198 26.5576 24.6526C24.6864 24.9048 23.0785 25 19.0104 25C14.8071 25 13.3198 24.8992 11.4423 24.6526C9.65429 24.4191 8.38741 23.2628 8.23009 21.4317C8.19752 21.053 8 19.8488 8 17.8364C8 16.3833 8.1996 14.9727 8.23009 14.6246C8.38741 12.8255 9.65429 11.6803 11.4423 11.4044C13.3136 11.1154 14.6996 11 19.0104 11C23.3211 11 24.685 11.1605 26.5576 11.4044C28.3852 11.6421 29.6229 12.7581 29.7692 14.6246C29.7983 14.9866 30 16.1832 30 18.0094C30.0022 19.1541 29.925 20.2977 29.7692 21.4317Z" fill="white"/>
<path d="M17 21L22 18L17 15V21Z" fill="#ADADAD"/>
</svg>
