<svg width="161" height="35" viewBox="0 0 161 35" fill="none" xmlns="http://www.w3.org/2000/svg">
<path d="M18.6998 13.2275V20.9712H3.60117V13.2275H0V31.4641H22.303V13.2275H18.6998ZM3.60117 27.8123V24.6231H18.6998V27.8123H3.60117Z" fill="#3B4A6A"/>
<path d="M37.6122 20.9712H31.065V13.2275H27.4639V20.9712V24.6231V31.4641H31.065V24.6231H37.6122V20.9712Z" fill="#3B4A6A"/>
<path d="M75.0145 17.3319H47.7324V6.84106H71.4133V3.65189H47.7324V0H75.0145V10.4929H51.3336V13.68H75.0145V17.3319Z" fill="#3B4A6A"/>
<path d="M76.7772 35H45.9697V27.1318H49.5709V31.3481H76.7772V35Z" fill="#3B4A6A"/>
<path d="M78.3856 20.519H44.4561V24.1709H78.3856V20.519Z" fill="#3B4A6A"/>
<path d="M87.4072 32.0744L84.457 29.9807L96.409 12.6758L108.359 29.9807L105.409 32.0744L96.409 19.0417L87.4072 32.0744Z" fill="#3B4A6A"/>
<path d="M122.984 20.2989V16.647H116.439V13.1196H112.838V16.647V20.2989V24.3928V28.0446V31.4641H116.439V28.0446H122.984V24.3928H116.439V20.2989H122.984Z" fill="#3B4A6A"/>
<path d="M149.593 32.422L140.591 19.3893L131.591 32.422L128.639 30.3284L140.591 13.0234L152.543 30.3284L149.593 32.422Z" fill="#3B4A6A"/>
<path d="M161 13.1196H157.398V31.4621H161V13.1196Z" fill="#3B4A6A"/>
</svg>
