<svg width="120" height="26" viewBox="0 0 120 26" fill="none" xmlns="http://www.w3.org/2000/svg">
<path d="M13.9214 9.55567V15.1497H2.68096V9.55567H0V22.7298H16.6039V9.55567H13.9214ZM2.68096 20.0916V17.7878H13.9214V20.0916H2.68096Z" fill="#3B4B6C"/>
<path d="M28.0014 15.1497H23.1272V9.55567H20.4463V15.1497V17.7878V22.7298H23.1272V17.7878H28.0014V15.1497Z" fill="#3B4B6C"/>
<path d="M55.8458 12.5206H35.5352V4.94197H53.1648V2.63812H35.5352V0H55.8458V7.58008H38.2161V9.88244H55.8458V12.5206Z" fill="#3B4B6C"/>
<path d="M57.1578 25.2839H34.2227V19.6H36.9036V22.6458H57.1578V25.2839Z" fill="#3B4B6C"/>
<path d="M58.3562 14.8229H33.0967V17.461H58.3562V14.8229Z" fill="#3B4B6C"/>
<path d="M65.0713 23.1704L62.875 21.658L71.7729 9.15696L80.6693 21.658L78.473 23.1704L71.7729 13.7557L65.0713 23.1704Z" fill="#3B4B6C"/>
<path d="M91.558 14.664V12.0259H86.6853V9.47773H84.0044V12.0259V14.664V17.6214V20.2595V22.7298H86.6853V20.2595H91.558V17.6214H86.6853V14.664H91.558Z" fill="#3B4B6C"/>
<path d="M111.647 23.1704L104.946 13.7557L98.2457 23.1704L96.0479 21.658L104.946 9.15696L113.844 21.658L111.647 23.1704Z" fill="#3B4B6C"/>
<path d="M119.86 9.47773H117.179V22.7283H119.86V9.47773Z" fill="#3B4B6C"/>
</svg>
