<svg width="180" height="39" viewBox="0 0 180 39" fill="none" xmlns="http://www.w3.org/2000/svg">
<path d="M20.9067 14.5333V23.0413H4.02615V14.5333H0V34.5699H24.9351V14.5333H20.9067ZM4.02615 30.5575V27.0536H20.9067V30.5575H4.02615Z" fill="white"/>
<path d="M42.0513 23.0413H34.7315V14.5333H30.7053V23.0413V27.0536V34.5699H34.7315V27.0536H42.0513V23.0413Z" fill="white"/>
<path d="M83.8671 19.0426H53.3655V7.51628H79.841V4.01233H53.3655V0H83.8671V11.5286H57.3916V15.0303H83.8671V19.0426Z" fill="white"/>
<path d="M85.8376 38.4545H51.3945V29.8098H55.4207V34.4422H85.8376V38.4545Z" fill="white"/>
<path d="M87.6368 22.5443H49.7031V26.5566H87.6368V22.5443Z" fill="white"/>
<path d="M97.7216 35.2401L94.4233 32.9399L107.786 13.9269L121.146 32.9399L117.848 35.2401L107.786 20.9211L97.7216 35.2401Z" fill="white"/>
<path d="M137.498 22.3026V18.2903H130.18V14.4148H126.154V18.2903V22.3026V26.8006V30.8129V34.5699H130.18V30.8129H137.498V26.8006H130.18V22.3026H137.498Z" fill="white"/>
<path d="M167.667 35.2401L157.603 20.9211L147.541 35.2401L144.241 32.9399L157.603 13.9269L170.966 32.9399L167.667 35.2401Z" fill="white"/>
<path d="M180 14.4148H175.974V34.5676H180V14.4148Z" fill="white"/>
</svg>
